HIERARCHY
ROOT hip
{
  OFFSET 0 0 0
  CHANNELS 6 Xposition Yposition Zposition Zrotation Yrotation Xrotation
  JOINT abdomen
  {
    OFFSET 0 20.6881 -0.73152
    CHANNELS 3 Zrotation Xrotation Yrotation
    JOINT chest
    {
      OFFSET 0 11.7043 -0.48768
      CHANNELS 3 Zrotation Xrotation Yrotation
      JOINT neck
      {
        OFFSET 0 22.1894 -2.19456
        CHANNELS 3 Zrotation Xrotation Yrotation
        JOINT head
        {
          OFFSET -0.24384 7.07133 1.2192
          CHANNELS 3 Zrotation Xrotation Yrotation
          JOINT leftEye
          {
            OFFSET 4.14528 8.04674 8.04672
            CHANNELS 3 Zrotation Xrotation Yrotation
            End Site
            {
              OFFSET 1 0 0
            }
          }
          JOINT rightEye
          {
            OFFSET -3.6576 8.04674 8.04672
            CHANNELS 3 Zrotation Xrotation Yrotation
            End Site
            {
              OFFSET 1 0 0
            }
          }
        }
      }
      JOINT rCollar
      {
        OFFSET -2.68224 19.2634 -4.8768
        CHANNELS 3 Zrotation Xrotation Yrotation
        JOINT rShldr
        {
          OFFSET -8.77824 -1.95073 1.46304
          CHANNELS 3 Zrotation Xrotation Yrotation
          JOINT rForeArm
          {
            OFFSET -28.1742 -1.7115 0.48768
            CHANNELS 3 Zrotation Xrotation Yrotation
            JOINT rHand
            {
              OFFSET -22.5879 0.773209 7.07136
              CHANNELS 3 Zrotation Xrotation Yrotation
              JOINT rThumb1
              {
                OFFSET -1.2192 -0.487915 3.41376
                CHANNELS 3 Zrotation Xrotation Yrotation
                JOINT rThumb2
                {
                  OFFSET -3.37035 -0.52449 3.41376
                  CHANNELS 3 Zrotation Xrotation Yrotation
                  End Site
                  {
                    OFFSET -1.78271 -1.18214 1.43049
                  }
                }
              }
              JOINT rIndex1
              {
                OFFSET -7.75947 0.938293 5.60832
                CHANNELS 3 Zrotation Xrotation Yrotation
                JOINT rIndex2
                {
                  OFFSET -2.54057 -0.884171 1.56538
                  CHANNELS 3 Zrotation Xrotation Yrotation
                  End Site
                  {
                    OFFSET -1.62519 -0.234802 1.16502
                  }
                }
              }
              JOINT rMid1
              {
                OFFSET -8.24714 1.18213 3.41376
                CHANNELS 3 Zrotation Xrotation Yrotation
                JOINT rMid2
                {
                  OFFSET -3.10165 -0.590103 1.0647
                  CHANNELS 3 Zrotation Xrotation Yrotation
                  End Site
                  {
                    OFFSET -2.48547 -0.328903 0.83742
                  }
                }
              }
              JOINT rRing1
              {
                OFFSET -8.82822 0.546677 1.51678
                CHANNELS 3 Zrotation Xrotation Yrotation
                JOINT rRing2
                {
                  OFFSET -2.60934 -0.819778 -0.0198488
                  CHANNELS 3 Zrotation Xrotation Yrotation
                  End Site
                  {
                    OFFSET -2.33842 -0.294052 0.168128
                  }
                }
              }
              JOINT rPinky1
              {
                OFFSET -8.27202 -0.0477905 -0.4584
                CHANNELS 3 Zrotation Xrotation Yrotation
                JOINT rPinky2
                {
                  OFFSET -1.82734 -0.647385 -0.700984
                  CHANNELS 3 Zrotation Xrotation Yrotation
                  End Site
                  {
                    OFFSET -1.69225 -0.51767 -0.607171
                  }
                }
              }
            }
          }
        }
      }
      JOINT lCollar
      {
        OFFSET 2.68224 19.2634 -4.8768
        CHANNELS 3 Zrotation Xrotation Yrotation
        JOINT lShldr
        {
          OFFSET 8.77824 -1.95073 1.46304
          CHANNELS 3 Zrotation Xrotation Yrotation
          JOINT lForeArm
          {
            OFFSET 28.1742 -1.7115 0.48768
            CHANNELS 3 Zrotation Xrotation Yrotation
            JOINT lHand
            {
              OFFSET 22.5879 0.773209 7.07136
              CHANNELS 3 Zrotation Xrotation Yrotation
              JOINT lThumb1
              {
                OFFSET 1.2192 -0.487915 3.41376
                CHANNELS 3 Zrotation Xrotation Yrotation
                JOINT lThumb2
                {
                  OFFSET 3.37035 -0.52449 3.41376
                  CHANNELS 3 Zrotation Xrotation Yrotation
                  End Site
                  {
                    OFFSET 1.78271 -1.18214 1.43049
                  }
                }
              }
              JOINT lIndex1
              {
                OFFSET 7.75947 0.938293 5.60832
                CHANNELS 3 Zrotation Xrotation Yrotation
                JOINT lIndex2
                {
                  OFFSET 2.54057 -0.884171 1.56538
                  CHANNELS 3 Zrotation Xrotation Yrotation
                  End Site
                  {
                    OFFSET 1.62519 -0.234802 1.16502
                  }
                }
              }
              JOINT lMid1
              {
                OFFSET 8.24714 1.18213 3.41376
                CHANNELS 3 Zrotation Xrotation Yrotation
                JOINT lMid2
                {
                  OFFSET 3.10165 -0.590103 1.0647
                  CHANNELS 3 Zrotation Xrotation Yrotation
                  End Site
                  {
                    OFFSET 2.48547 -0.328903 0.83742
                  }
                }
              }
              JOINT lRing1
              {
                OFFSET 8.82822 0.546677 1.51678
                CHANNELS 3 Zrotation Xrotation Yrotation
                JOINT lRing2
                {
                  OFFSET 2.60934 -0.819778 -0.0198488
                  CHANNELS 3 Zrotation Xrotation Yrotation
                  End Site
                  {
                    OFFSET 2.33842 -0.294052 0.168128
                  }
                }
              }
              JOINT lPinky1
              {
                OFFSET 8.27202 -0.0477905 -0.4584
                CHANNELS 3 Zrotation Xrotation Yrotation
                JOINT lPinky2
                {
                  OFFSET 1.82734 -0.647385 -0.700984
                  CHANNELS 3 Zrotation Xrotation Yrotation
                  End Site
                  {
                    OFFSET 1.69225 -0.51767 -0.607171
                  }
                }
              }
            }
          }
        }
      }
    }
  }
  JOINT rButtock
  {
    OFFSET -8.77824 4.35084 1.2192
    CHANNELS 3 Zrotation Xrotation Yrotation
    JOINT rThigh
    {
      OFFSET 0 -1.70687 -2.19456
      CHANNELS 3 Zrotation Xrotation Yrotation
      JOINT rShin
      {
        OFFSET 0 -36.8199 0.73152
        CHANNELS 3 Zrotation Xrotation Yrotation
        JOINT rFoot
        {
          OFFSET 0.73152 -45.1104 -5.12064
          CHANNELS 3 Zrotation Xrotation Yrotation
          End Site
          {
            OFFSET -1.1221 -3.69964 12.103
          }
        }
      }
    }
  }
  JOINT lButtock
  {
    OFFSET 8.77824 4.35084 1.2192
    CHANNELS 3 Zrotation Xrotation Yrotation
    JOINT lThigh
    {
      OFFSET 0 -1.70687 -2.19456
      CHANNELS 3 Zrotation Xrotation Yrotation
      JOINT lShin
      {
        OFFSET 0 -36.8199 0.73152
        CHANNELS 3 Zrotation Xrotation Yrotation
        JOINT lFoot
        {
          OFFSET -0.73152 -45.1104 -5.12064
          CHANNELS 3 Zrotation Xrotation Yrotation
          End Site
          {
            OFFSET 1.1221 -3.69964 12.103
          }
        }
      }
    }
  }
}
MOTION
Frames:	4
Frame Time:	0.03333
-17.25269164890051 62.95839548110962 30.864663794636726 -19.01884957410268 -26.79969350110178 11.781068865369418 14.39923917613351 8.030723836463077 -0.762015711002879 5.850608561891399 -7.924303512778754 -0.19484416612271907 1.5669190335779142 10.89920777370344 7.642407091580341 0.717597069839582 -20.411634428895 15.74306694250247 -0.11000430536872793 -0.025445976474588284 -0.11824199375543934 -0.021275825821178155 0.431982357690038 -0.11162994375204387 0.23905333925799352 -0.22231374622148228 -0.24238977994583896 101.21954444270791 46.73268022579333 -52.98900373193079 -26.744083808426826 -43.59632224572059 90.74715689778586 -10.737181172438751 -61.77113802332812 -16.345323995210222 0.03723936529367312 -0.07422393251479302 0.12650281407187886 -0.1281165263045737 -0.376019709653641 0.031086912316225457 0.26551922839430864 -0.07364854243807234 0.08444162870886764 7.46277909282453 5.683271915433849 0.5167092535184594 -0.11427354712595615 -0.2707506730508624 0.12341642234067934 3.204538209028277 1.0586904204093777 0.03353741610373943 0.07492861593806793 0.17944934662033343 0.23730926646168662 10.30409766018846 0.7057473319598445 0.2654507397396234 0.19714940832845126 0.013226234440906566 0.14002486774099837 2.036170318474127 -0.6221429350328324 -0.01018007679278666 -0.0766063345138052 0.13644578191484558 0.20631787007213556 -2.4627835071463 -30.210261378235728 -84.49614727882268 27.880719493870746 -33.29067669391148 -72.67065144799692 0.2335325453766398 -10.65484921840977 1.5547882974468543 0.02101702568465814 0.0770941594309322 -0.052229389366029694 0.2945219725183282 0.025360545749110234 -0.31244737710820353 -0.18420294483925076 0.08641638047222114 -0.02350823046271451 -7.431122019795167 5.4111106482368205 -0.21139446153360042 -0.16872314817863665 -0.04785443975922496 -0.040565587378189986 -2.7284191689216164 0.9612564912386764 -0.0869952390043797 -0.4889722821858608 -0.0378878063780012 -0.2572342889723625 -9.862129779375275 0.7878072523607876 0.06887050494853107 -0.05896687739435803 0.17487181253552908 0.20038483692177456 -2.398079204148065 -0.7367953442143127 0.06100420809793912 0.0378613393949674 0.12915135332468353 0.01922458127520581 -10.47916394635235 5.352006033140938 -9.436901838444145 0.9472823510836534 35.02628923371425 0.40430264255259113 -11.327901181864705 -15.005075247966348 -27.34069912488015 -0.1933298384785332 0.13859367630561625 0.1288828948737903 84.5637661516058 -49.59638729948292 72.2039309616316 9.374584046230595 82.80213059106529 -9.495686715309505 -0.8231841104451628 -7.809577679063696 -6.094275133644781
-17.685003113001585 62.568068504333496 31.449772510677576 -19.113574052607003 -26.771075008479425 11.800816649807217 14.06814575611714 8.36586585110997 -0.38880969244173946 5.733602298767204 -7.939714127093595 -0.1656666652054824 1.477737680471881 10.851872001434312 7.709212318078589 0.8430352014941587 -20.627796255747565 15.68134593806765 -0.21338129953013366 -0.03939364964657745 -0.12846934826388717 -0.026816603341939436 0.4643604425636603 -0.0559710523707273 0.2486228611720045 -0.1801480002672317 -0.2569197267445717 101.27639210716993 47.16942642698604 -52.99045173203483 -26.895792555176566 -43.55808001655769 90.81487139321737 -10.795321450201191 -61.957602187669465 -16.57026090759896 0.1376003506888422 -0.04212113628123395 0.11276175412228258 -0.14776217806994021 -0.36716180807378074 -0.013004520097145606 0.33622305216560633 -0.11472156484682666 0.031335200364726 7.448554370104332 5.751495259958522 0.5105031728838566 -0.08659452567959681 -0.25770389115822734 0.1529379940373554 3.1995476886225247 1.0658949893232716 0.10801491939146916 0.09950038155974747 0.21028455579347335 0.24313611151479508 10.363674838997543 0.6733963543994907 0.26753928352176637 0.16853070226268627 0.03929599928578742 0.16909084447569342 2.026575183350728 -0.5819585842681202 -0.056995580746229214 -0.10186642845734864 0.23082832407384365 0.181771504216432 -3.251727132230249 -30.13076480648595 -84.26681684725034 27.895865438355248 -33.01916301402513 -72.09301551969976 0.12429092667827898 -10.302314127041441 1.6533225274041623 0.04915484374417192 0.062396926358387034 -0.09899430723093183 0.2894317206785233 -0.008704275684387891 -0.3433366408253217 -0.17405381734114073 0.06475934471799163 -0.04219776246598503 -7.409634244666306 5.41080457038464 -0.22737945206895746 -0.14108548139326765 -0.07575192053731891 -0.011338941115440973 -2.7350103014706786 0.9671731426072 -0.007307208514429384 -0.5151335075325963 0.023810359611781795 -0.2711723571908314 -9.891139300327612 0.7787329191616026 0.07565800543623125 -0.08811278868668337 0.18369257496177743 0.22148051650359363 -2.344507682610128 -0.6799121947851242 0.07297133985403614 0.06054418418516818 0.12784934851414984 0.08710092017352979 -10.517949175554266 5.556188561962946 -9.017323317730261 1.0116628604265474 34.656806735467825 0.3311274108796595 -11.169390420475281 -14.935731752417793 -27.628653070098718 -0.22229261532373756 0.17365119636586698 0.0861263375563336 84.81877126426824 -49.73737606433032 72.47063618834227 9.411568666812567 82.88872372936271 -9.570113579147842 -0.6472486827093894 -7.895584274866143 -5.310232596177141
-18.02829187363386 62.81023025512695 32.26963486522436 -18.93799379470807 -26.90108253668874 12.08825491574345 13.949408040038346 8.662325089392494 -0.37505518555721473 5.743685365529435 -7.878309872681534 -0.07511800027508372 1.6498353956677534 10.924769756672212 7.7265780740433465 0.8272699509510056 -21.201335778089998 15.711677100624383 -0.16175776928782526 0.006479394923109128 -0.14216345066293962 0.05103944234656654 0.4125208008671445 -0.05281539825247563 0.3129766367276002 -0.11693129112588446 -0.22294721958657454 101.29865852386418 46.95427205303606 -52.76144573444805 -26.942594718916787 -43.894152644479 91.08195911052155 -10.520511350266668 -62.487720489910835 -16.585635663420657 0.22815969445992562 -0.00532856140881487 0.16498217886502664 -0.1064411344169498 -0.29322394309133487 0.017779569378924987 0.2658330969310119 -0.14902939160438916 0.023933943347076714 7.564033232175383 5.648525035578702 0.4375692389876969 -0.15124077206988656 -0.3255636881921552 0.22157371123316727 3.1986826024754604 1.1064669533233822 0.15195614100395283 0.10718946701788933 0.2585129484097565 0.14163517821932145 10.452797708608808 0.7019403552712087 0.3190786636990661 0.16048292515141296 -0.04931439269431519 0.1744987534727568 2.0556551406288808 -0.6559300665878872 -0.00887134851478875 -0.16331900112170208 0.23495882761355597 0.1913640246580389 -3.212774990280489 -31.14824442676441 -85.1043346432773 28.242565840625094 -33.0793916221263 -72.44024867672488 0.24003232414555317 -11.1936094174985 1.6331021792531626 -0.017471944062009963 0.037136965816975814 -0.08598087587135349 0.23666440055450222 -0.03761651980190476 -0.2861777758692469 -0.17231862912684012 0.07977316773073748 -0.05640946513807749 -7.450784426868341 5.475950060914575 -0.21162892912120226 -0.09922447926987599 -0.12522874366783346 -0.0807976961062394 -2.7680536894581427 0.9594178896914736 -0.05764356826330773 -0.40004887544270124 0.05454407644272354 -0.22442376774691378 -9.943748832409636 0.7981639002157896 -0.022180825886204847 -0.08011591782906782 0.0897871855493282 0.1652100030264436 -2.3214096903844377 -0.5584886668977812 0.0695049121285489 -0.0012504582266412406 0.007192776165405225 0.06301142994027661 -10.8187797349056 5.348775353663522 -8.88553823278945 0.8067907493026332 34.51742989526454 0.5715065272081495 -11.021070301327514 -14.615839842640245 -27.99968431373944 -0.22622707108992937 0.18232721747864922 0.008965903946111114 84.42768829277165 -50.018390537352154 72.6483782011135 9.515657334668976 83.20055601591964 -9.823204531295373 -0.24766393996513172 -8.228168383668866 -4.0445584156124035
-18.292618170380592 63.15791606903076 33.21467200294137 -18.966748891113824 -27.007522497166928 12.4264585626858 14.466709492302188 8.6041284625694 -0.49511795833499134 5.491381592683749 -7.861259159192243 0.10775818031789205 1.8874867051964697 10.831406193360015 7.7449051791337835 0.6962108937746259 -21.18804935260703 15.970047789000335 -0.08762588424426875 0.10291152744163994 -0.13737121918652942 0.07857033406530121 0.29780393177537223 -0.11184466782407614 0.30153473584650653 -0.10521431504813915 -0.17125154547115787 101.99938129119411 46.774153134433654 -53.66817725242934 -26.93130783131334 -44.21695421484297 91.62110692284567 -10.291400338521406 -63.092328835240366 -16.59865912662058 0.1915388881729618 -0.04199589835949941 0.11130137430036922 0.01097237873650814 -0.22360702653256834 0.06328698538460432 0.19835744467704436 -0.12050769556917951 0.044188709248190856 7.63812285542345 5.608429263829788 0.3918193512664821 -0.1638527163723151 -0.3290834767705332 0.23738367817104272 3.1912408979313196 1.1347298492220719 0.10157140964192905 0.11120833965335425 0.26351328721244055 0.1083626587295448 10.476698248061975 0.7250214854673859 0.3207873849303329 0.17513218681720938 -0.12109082296956934 0.11594887780352656 2.108627953397384 -0.6405561645398348 -0.0153805187938109 -0.17403236627827864 0.21655856479380609 0.25755138584066567 -4.073866757340928 -32.3916188934627 -85.10408192627801 28.370338189428523 -32.76407593909266 -71.86456618253035 0.3586778326705522 -10.786273157098218 1.2726940142059229 -0.049687385056021355 0.04478373611877532 -0.061118773849095503 0.18849753300160205 -0.04251600659262531 -0.21565703318421728 -0.20448273698037064 0.06353642069144201 -0.03377720643641712 -7.527792248439296 5.471661555889453 -0.19318314949393658 -0.11562877938724832 -0.1210738542183501 -0.08738557364327536 -2.845052973292635 0.9804222154931438 -0.08070596880012024 -0.3013973583307394 0.049069039492723635 -0.2043342604072022 -10.01173482786065 0.7992237001150524 -0.06940582102473082 -0.09005362962802482 0.01904275416898067 0.11306022805292684 -2.258533957093062 -0.5522571864972023 0.14175091790924144 -0.08813494678084625 -0.08382739193124251 -0.053928559004629034 -10.940229889858536 5.8228126801772095 -8.952091596062054 0.7225174207237828 33.81965776965604 0.7217679141840797 -11.178210756014705 -14.794964968718416 -28.674018645211046 -0.19129252111516531 0.19335869335973385 0.03351125594560975 84.49670735433462 -50.01604095227767 73.15666038857835 8.910268640226775 83.23351850885413 -9.35258486068763 -0.21765710467226743 -8.232779615132271 -3.832333339042706
